<?xml version="1.0" encoding="UTF-8" standalone="no"?>
<!DOCTYPE svg PUBLIC "-//W3C//DTD SVG 1.1//EN"
 "http://www.w3.org/Graphics/SVG/1.1/DTD/svg11.dtd">
<!-- Generated by graphviz version 2.38.0 (20140413.2041)
 -->
<!-- Title: finite_state_machine Pages: 1 -->
<svg width="2247pt" height="990pt"
 viewBox="0.00 0.00 2247.00 990.00" xmlns="http://www.w3.org/2000/svg" xmlns:xlink="http://www.w3.org/1999/xlink">
<g id="graph0" class="graph" transform="scale(1 1) rotate(0) translate(4 986)">
<title>finite_state_machine</title>
<polygon fill="white" stroke="none" points="-4,4 -4,-986 2243,-986 2243,4 -4,4"/>
<g id="clust3" class="cluster"><title>cluster_inbound</title>
<polygon fill="none" stroke="black" points="230,-576 230,-823 881,-823 881,-576 230,-576"/>
<text text-anchor="middle" x="555.5" y="-799" font-family="Times,serif" font-size="25.00">Inbound call</text>
</g>
<g id="clust4" class="cluster"><title>cluster_outbound</title>
<polygon fill="none" stroke="black" points="230,-20 230,-568 1340,-568 1340,-20 230,-20"/>
<text text-anchor="middle" x="785" y="-544" font-family="Times,serif" font-size="25.00">Outbound call</text>
</g>
<g id="clust5" class="cluster"><title>cluster_oncall</title>
<polygon fill="none" stroke="black" points="935,-576 935,-974 2231,-974 2231,-576 935,-576"/>
<text text-anchor="middle" x="1583" y="-950" font-family="Times,serif" font-size="25.00">On call</text>
</g>
<!-- On_Hook -->
<g id="node1" class="node"><title>On_Hook</title>
<ellipse fill="none" stroke="black" cx="76" cy="-512" rx="72" ry="72"/>
<ellipse fill="none" stroke="black" cx="76" cy="-512" rx="76" ry="76"/>
<text text-anchor="middle" x="76" y="-506.4" font-family="Times,serif" font-size="22.00">On_Hook</text>
</g>
<!-- Ringing -->
<g id="node7" class="node"><title>Ringing</title>
<ellipse fill="none" stroke="black" cx="310" cy="-662" rx="72" ry="72"/>
<text text-anchor="middle" x="310" y="-658.2" font-family="Times,serif" font-size="16.00">Ringing</text>
</g>
<!-- On_Hook&#45;&gt;Ringing -->
<g id="edge27" class="edge"><title>On_Hook&#45;&gt;Ringing</title>
<path fill="none" stroke="black" d="M140.395,-552.988C171.298,-572.969 208.521,-597.035 240.123,-617.467"/>
<polygon fill="black" stroke="black" points="238.579,-620.637 248.877,-623.127 242.38,-614.759 238.579,-620.637"/>
<text text-anchor="middle" x="195" y="-604.8" font-family="Times,serif" font-size="14.00">Ring</text>
</g>
<!-- Play_Dialtone -->
<g id="node9" class="node"><title>Play_Dialtone</title>
<ellipse fill="none" stroke="black" cx="310" cy="-276" rx="72" ry="72"/>
<text text-anchor="middle" x="310" y="-272.2" font-family="Times,serif" font-size="16.00">Play_Dialtone</text>
</g>
<!-- On_Hook&#45;&gt;Play_Dialtone -->
<g id="edge1" class="edge"><title>On_Hook&#45;&gt;Play_Dialtone</title>
<path fill="none" stroke="black" d="M129.935,-458.153C166.169,-421.294 214.197,-372.437 251.391,-334.602"/>
<polygon fill="black" stroke="black" points="254.165,-336.774 258.679,-327.189 249.173,-331.866 254.165,-336.774"/>
<text text-anchor="middle" x="195" y="-419.8" font-family="Times,serif" font-size="14.00">Off hook</text>
</g>
<!-- On_Call -->
<g id="node2" class="node"><title>On_Call</title>
<ellipse fill="none" stroke="black" cx="1019" cy="-680" rx="72" ry="72"/>
<ellipse fill="none" stroke="black" cx="1019" cy="-680" rx="76" ry="76"/>
<text text-anchor="middle" x="1019" y="-674.4" font-family="Times,serif" font-size="22.00">On_Call</text>
</g>
<!-- Check_Status -->
<g id="node16" class="node"><title>Check_Status</title>
<ellipse fill="none" stroke="black" cx="1260" cy="-656" rx="72" ry="72"/>
<text text-anchor="middle" x="1260" y="-652.2" font-family="Times,serif" font-size="16.00">Check_Status</text>
</g>
<!-- On_Call&#45;&gt;Check_Status -->
<g id="edge16" class="edge"><title>On_Call&#45;&gt;Check_Status</title>
<path fill="none" stroke="black" d="M1094.64,-672.505C1121.11,-669.846 1151.03,-666.843 1178.01,-664.133"/>
<polygon fill="black" stroke="black" points="1178.59,-667.592 1188.19,-663.111 1177.89,-660.627 1178.59,-667.592"/>
<text text-anchor="middle" x="1141.5" y="-673.8" font-family="Times,serif" font-size="14.00">Timeout</text>
</g>
<!-- Pulse_Accum2 -->
<g id="node18" class="node"><title>Pulse_Accum2</title>
<ellipse fill="none" stroke="black" cx="1260" cy="-818" rx="72" ry="72"/>
<text text-anchor="middle" x="1260" y="-814.2" font-family="Times,serif" font-size="16.00">Pulse_Accum2</text>
</g>
<!-- On_Call&#45;&gt;Pulse_Accum2 -->
<g id="edge20" class="edge"><title>On_Call&#45;&gt;Pulse_Accum2</title>
<path fill="none" stroke="black" d="M1085.31,-717.709C1117.14,-736.091 1155.49,-758.233 1188.04,-777.03"/>
<polygon fill="black" stroke="black" points="1186.65,-780.268 1197.06,-782.237 1190.15,-774.206 1186.65,-780.268"/>
<text text-anchor="middle" x="1141.5" y="-768.8" font-family="Times,serif" font-size="14.00">Pulse</text>
</g>
<!-- Answered -->
<g id="node3" class="node"><title>Answered</title>
<ellipse fill="none" stroke="black" cx="797" cy="-680" rx="72" ry="72"/>
<ellipse fill="none" stroke="black" cx="797" cy="-680" rx="76" ry="76"/>
<text text-anchor="middle" x="797" y="-674.4" font-family="Times,serif" font-size="22.00">Answered</text>
</g>
<!-- Answered&#45;&gt;On_Call -->
<g id="edge32" class="edge"><title>Answered&#45;&gt;On_Call</title>
<path fill="none" stroke="black" d="M873.096,-680C892.282,-680 913.049,-680 932.705,-680"/>
<polygon fill="black" stroke="black" points="932.869,-683.5 942.869,-680 932.869,-676.5 932.869,-683.5"/>
</g>
<!-- Dial_Number -->
<g id="node4" class="node"><title>Dial_Number</title>
<ellipse fill="none" stroke="black" cx="797" cy="-448" rx="72" ry="72"/>
<ellipse fill="none" stroke="black" cx="797" cy="-448" rx="76" ry="76"/>
<text text-anchor="middle" x="797" y="-442.4" font-family="Times,serif" font-size="22.00">Dial_Number</text>
</g>
<!-- Dial_Number&#45;&gt;On_Call -->
<g id="edge15" class="edge"><title>Dial_Number&#45;&gt;On_Call</title>
<path fill="none" stroke="black" d="M849.858,-502.687C882.592,-537.206 924.964,-581.889 958.983,-617.764"/>
<polygon fill="black" stroke="black" points="956.688,-620.431 966.109,-625.279 961.768,-615.614 956.688,-620.431"/>
</g>
<!-- Play_Error -->
<g id="node5" class="node"><title>Play_Error</title>
<ellipse fill="none" stroke="black" cx="1483" cy="-162" rx="72" ry="72"/>
<text text-anchor="middle" x="1483" y="-158.2" font-family="Times,serif" font-size="16.00">Play_Error</text>
</g>
<!-- Wait_Hook -->
<g id="node6" class="node"><title>Wait_Hook</title>
<ellipse fill="none" stroke="black" cx="1710" cy="-195" rx="72" ry="72"/>
<text text-anchor="middle" x="1710" y="-191.2" font-family="Times,serif" font-size="16.00">Wait_Hook</text>
</g>
<!-- Play_Error&#45;&gt;Wait_Hook -->
<g id="edge2" class="edge"><title>Play_Error&#45;&gt;Wait_Hook</title>
<path fill="none" stroke="black" d="M1554.77,-167.827C1575.83,-169.953 1598.9,-172.671 1620,-176 1623.2,-176.505 1626.46,-177.05 1629.74,-177.627"/>
<polygon fill="black" stroke="black" points="1629.19,-181.084 1639.66,-179.442 1630.45,-174.199 1629.19,-181.084"/>
</g>
<!-- Wait_Hook&#45;&gt;Play_Error -->
<g id="edge5" class="edge"><title>Wait_Hook&#45;&gt;Play_Error</title>
<path fill="none" stroke="black" d="M1638.49,-184.659C1614.9,-181.199 1588.43,-177.317 1564.16,-173.757"/>
<polygon fill="black" stroke="black" points="1564.67,-170.294 1554.27,-172.306 1563.65,-177.22 1564.67,-170.294"/>
<text text-anchor="middle" x="1596.5" y="-185.8" font-family="Times,serif" font-size="14.00">Timeout</text>
</g>
<!-- Ringing&#45;&gt;Answered -->
<g id="edge30" class="edge"><title>Ringing&#45;&gt;Answered</title>
<path fill="none" stroke="black" d="M376.921,-635.022C403.761,-625.404 435.388,-615.776 465,-611 528.184,-600.81 545.997,-599.747 609,-611 646.051,-617.618 685.374,-631.067 718.35,-644.348"/>
<polygon fill="black" stroke="black" points="717.341,-647.717 727.921,-648.27 719.995,-641.24 717.341,-647.717"/>
<text text-anchor="middle" x="537" y="-614.8" font-family="Times,serif" font-size="14.00">Off hook</text>
</g>
<!-- Ringing_Wait -->
<g id="node8" class="node"><title>Ringing_Wait</title>
<ellipse fill="none" stroke="black" cx="537" cy="-707" rx="72" ry="72"/>
<text text-anchor="middle" x="537" y="-703.2" font-family="Times,serif" font-size="16.00">Ringing_Wait</text>
</g>
<!-- Ringing&#45;&gt;Ringing_Wait -->
<g id="edge28" class="edge"><title>Ringing&#45;&gt;Ringing_Wait</title>
<path fill="none" stroke="black" d="M382.258,-660.218C403.323,-661.009 426.282,-663.181 447,-668 452.006,-669.165 457.082,-670.604 462.139,-672.237"/>
<polygon fill="black" stroke="black" points="461.224,-675.624 471.818,-675.594 463.517,-669.011 461.224,-675.624"/>
<text text-anchor="middle" x="423.5" y="-671.8" font-family="Times,serif" font-size="14.00">Timeout</text>
</g>
<!-- Ringing_Wait&#45;&gt;Answered -->
<g id="edge31" class="edge"><title>Ringing_Wait&#45;&gt;Answered</title>
<path fill="none" stroke="black" d="M608.841,-699.586C640.476,-696.276 678.012,-692.348 711.134,-688.881"/>
<polygon fill="black" stroke="black" points="711.679,-692.343 721.261,-687.822 710.951,-685.381 711.679,-692.343"/>
<text text-anchor="middle" x="665" y="-700.8" font-family="Times,serif" font-size="14.00">Off hook</text>
</g>
<!-- Ringing_Wait&#45;&gt;Ringing -->
<g id="edge29" class="edge"><title>Ringing_Wait&#45;&gt;Ringing</title>
<path fill="none" stroke="black" d="M465.618,-695.368C444.474,-691.661 421.252,-687.379 400,-683 396.812,-682.343 393.565,-681.657 390.287,-680.95"/>
<polygon fill="black" stroke="black" points="390.911,-677.504 380.393,-678.777 389.409,-684.341 390.911,-677.504"/>
<text text-anchor="middle" x="423.5" y="-694.8" font-family="Times,serif" font-size="14.00">Timeout</text>
</g>
<!-- Wait_First_Pulse -->
<g id="node10" class="node"><title>Wait_First_Pulse</title>
<ellipse fill="none" stroke="black" cx="537" cy="-100" rx="72" ry="72"/>
<text text-anchor="middle" x="537" y="-96.2" font-family="Times,serif" font-size="16.00">Wait_First_Pulse</text>
</g>
<!-- Play_Dialtone&#45;&gt;Wait_First_Pulse -->
<g id="edge3" class="edge"><title>Play_Dialtone&#45;&gt;Wait_First_Pulse</title>
<path fill="none" stroke="black" d="M367.197,-232.042C398.875,-207.262 438.578,-176.205 471.52,-150.438"/>
<polygon fill="black" stroke="black" points="474.02,-152.926 479.74,-144.008 469.707,-147.412 474.02,-152.926"/>
</g>
<!-- Wait_First_Pulse&#45;&gt;Play_Error -->
<g id="edge4" class="edge"><title>Wait_First_Pulse&#45;&gt;Play_Error</title>
<path fill="none" stroke="black" d="M598.281,-62.0517C649.019,-33.7625 724.543,-0 796,-0 796,-0 796,-0 1261,-0 1329.81,-0 1391.41,-51.7093 1431.98,-96.6993"/>
<polygon fill="black" stroke="black" points="1429.57,-99.2514 1438.81,-104.429 1434.81,-94.617 1429.57,-99.2514"/>
<text text-anchor="middle" x="1019" y="-3.8" font-family="Times,serif" font-size="14.00">Timeout</text>
</g>
<!-- Pulse_Accum -->
<g id="node11" class="node"><title>Pulse_Accum</title>
<ellipse fill="none" stroke="black" cx="797" cy="-100" rx="72" ry="72"/>
<text text-anchor="middle" x="797" y="-96.2" font-family="Times,serif" font-size="16.00">Pulse_Accum</text>
</g>
<!-- Wait_First_Pulse&#45;&gt;Pulse_Accum -->
<g id="edge6" class="edge"><title>Wait_First_Pulse&#45;&gt;Pulse_Accum</title>
<path fill="none" stroke="black" d="M609.183,-100C641.759,-100 680.537,-100 714.298,-100"/>
<polygon fill="black" stroke="black" points="714.602,-103.5 724.602,-100 714.602,-96.5001 714.602,-103.5"/>
<text text-anchor="middle" x="665" y="-103.8" font-family="Times,serif" font-size="14.00">Pulse</text>
</g>
<!-- Pulse_Debounce -->
<g id="node12" class="node"><title>Pulse_Debounce</title>
<ellipse fill="none" stroke="black" cx="1019" cy="-262" rx="72" ry="72"/>
<text text-anchor="middle" x="1019" y="-258.2" font-family="Times,serif" font-size="16.00">Pulse_Debounce</text>
</g>
<!-- Pulse_Accum&#45;&gt;Pulse_Debounce -->
<g id="edge7" class="edge"><title>Pulse_Accum&#45;&gt;Pulse_Debounce</title>
<path fill="none" stroke="black" d="M855.515,-142.352C885.2,-164.211 921.545,-190.974 952.328,-213.642"/>
<polygon fill="black" stroke="black" points="950.311,-216.503 960.439,-219.614 954.462,-210.866 950.311,-216.503"/>
</g>
<!-- Pulse_Falling -->
<g id="node13" class="node"><title>Pulse_Falling</title>
<ellipse fill="none" stroke="black" cx="1260" cy="-330" rx="72" ry="72"/>
<text text-anchor="middle" x="1260" y="-326.2" font-family="Times,serif" font-size="16.00">Pulse_Falling</text>
</g>
<!-- Pulse_Debounce&#45;&gt;Pulse_Falling -->
<g id="edge8" class="edge"><title>Pulse_Debounce&#45;&gt;Pulse_Falling</title>
<path fill="none" stroke="black" d="M1088.49,-281.486C1117.24,-289.666 1150.84,-299.227 1180.58,-307.687"/>
<polygon fill="black" stroke="black" points="1179.93,-311.141 1190.5,-310.511 1181.84,-304.408 1179.93,-311.141"/>
<text text-anchor="middle" x="1141.5" y="-308.8" font-family="Times,serif" font-size="14.00">Timeout</text>
</g>
<!-- Pulse_Wait -->
<g id="node14" class="node"><title>Pulse_Wait</title>
<ellipse fill="none" stroke="black" cx="537" cy="-283" rx="72" ry="72"/>
<text text-anchor="middle" x="537" y="-279.2" font-family="Times,serif" font-size="16.00">Pulse_Wait</text>
</g>
<!-- Pulse_Falling&#45;&gt;Pulse_Wait -->
<g id="edge9" class="edge"><title>Pulse_Falling&#45;&gt;Pulse_Wait</title>
<path fill="none" stroke="black" d="M1188.38,-339.824C1085.03,-352.373 886.838,-369.493 721,-343 684.79,-337.215 646.018,-325.375 613.525,-313.729"/>
<polygon fill="black" stroke="black" points="614.689,-310.428 604.095,-310.292 612.292,-317.005 614.689,-310.428"/>
<text text-anchor="middle" x="908" y="-360.8" font-family="Times,serif" font-size="14.00">!Pulse</text>
</g>
<!-- Pulse_Wait&#45;&gt;Dial_Number -->
<g id="edge14" class="edge"><title>Pulse_Wait&#45;&gt;Dial_Number</title>
<path fill="none" stroke="black" d="M591.165,-330.905C602.638,-340.349 614.95,-349.848 627,-358 655.819,-377.497 689.324,-396.096 718.866,-411.272"/>
<polygon fill="black" stroke="black" points="717.398,-414.452 727.897,-415.869 720.573,-408.214 717.398,-414.452"/>
<text text-anchor="middle" x="665" y="-404.8" font-family="Times,serif" font-size="14.00">Long timeout</text>
</g>
<!-- Pulse_Wait&#45;&gt;Pulse_Accum -->
<g id="edge10" class="edge"><title>Pulse_Wait&#45;&gt;Pulse_Accum</title>
<path fill="none" stroke="black" d="M596.222,-241.703C635.71,-213.694 688.014,-176.595 729.198,-147.383"/>
<polygon fill="black" stroke="black" points="731.412,-150.103 737.544,-141.463 727.363,-144.394 731.412,-150.103"/>
<text text-anchor="middle" x="665" y="-222.8" font-family="Times,serif" font-size="14.00">Pulse</text>
</g>
<!-- Add_Digit -->
<g id="node15" class="node"><title>Add_Digit</title>
<ellipse fill="none" stroke="black" cx="797" cy="-262" rx="72" ry="72"/>
<text text-anchor="middle" x="797" y="-258.2" font-family="Times,serif" font-size="16.00">Add_Digit</text>
</g>
<!-- Pulse_Wait&#45;&gt;Add_Digit -->
<g id="edge11" class="edge"><title>Pulse_Wait&#45;&gt;Add_Digit</title>
<path fill="none" stroke="black" d="M607.232,-265.931C613.881,-264.748 620.549,-263.735 627,-263 655.43,-259.76 686.725,-258.843 714.576,-258.95"/>
<polygon fill="black" stroke="black" points="714.641,-262.451 724.67,-259.033 714.699,-255.451 714.641,-262.451"/>
<text text-anchor="middle" x="665" y="-266.8" font-family="Times,serif" font-size="14.00">Short timeout</text>
</g>
<!-- Add_Digit&#45;&gt;Play_Error -->
<g id="edge13" class="edge"><title>Add_Digit&#45;&gt;Play_Error</title>
<path fill="none" stroke="black" d="M855.364,-219.41C878.834,-204.371 907.02,-189.177 935,-181 1094.93,-134.261 1292.39,-142.635 1400.95,-152.551"/>
<polygon fill="black" stroke="black" points="1400.89,-156.061 1411.17,-153.514 1401.54,-149.091 1400.89,-156.061"/>
<text text-anchor="middle" x="1141.5" y="-153.8" font-family="Times,serif" font-size="14.00">Too many</text>
</g>
<!-- Add_Digit&#45;&gt;Pulse_Wait -->
<g id="edge12" class="edge"><title>Add_Digit&#45;&gt;Pulse_Wait</title>
<path fill="none" stroke="black" d="M726.066,-275.112C718.305,-276.245 710.498,-277.245 703,-278 675.819,-280.736 646.003,-282.128 619.283,-282.797"/>
<polygon fill="black" stroke="black" points="619.126,-279.3 609.206,-283.02 619.281,-286.298 619.126,-279.3"/>
</g>
<!-- Check_Status&#45;&gt;On_Call -->
<g id="edge17" class="edge"><title>Check_Status&#45;&gt;On_Call</title>
<path fill="none" stroke="black" d="M1187.91,-656.782C1164.05,-657.613 1137.32,-659.163 1113,-662 1109.91,-662.36 1106.78,-662.765 1103.61,-663.206"/>
<polygon fill="black" stroke="black" points="1102.82,-659.786 1093.45,-664.728 1103.86,-666.708 1102.82,-659.786"/>
</g>
<!-- Play_Endtone -->
<g id="node17" class="node"><title>Play_Endtone</title>
<ellipse fill="none" stroke="black" cx="1483" cy="-656" rx="72" ry="72"/>
<text text-anchor="middle" x="1483" y="-652.2" font-family="Times,serif" font-size="16.00">Play_Endtone</text>
</g>
<!-- Check_Status&#45;&gt;Play_Endtone -->
<g id="edge18" class="edge"><title>Check_Status&#45;&gt;Play_Endtone</title>
<path fill="none" stroke="black" d="M1332.14,-656C1354.03,-656 1378.28,-656 1400.79,-656"/>
<polygon fill="black" stroke="black" points="1400.99,-659.5 1410.99,-656 1400.99,-652.5 1400.99,-659.5"/>
<text text-anchor="middle" x="1371.5" y="-659.8" font-family="Times,serif" font-size="14.00">Hangup</text>
</g>
<!-- Play_Endtone&#45;&gt;Wait_Hook -->
<g id="edge19" class="edge"><title>Play_Endtone&#45;&gt;Wait_Hook</title>
<path fill="none" stroke="black" d="M1515.52,-591.415C1556.93,-506.572 1629.48,-357.931 1673,-268.758"/>
<polygon fill="black" stroke="black" points="1676.27,-270.041 1677.51,-259.52 1669.98,-266.971 1676.27,-270.041"/>
</g>
<!-- Pulse_Debounce2 -->
<g id="node19" class="node"><title>Pulse_Debounce2</title>
<ellipse fill="none" stroke="black" cx="1483" cy="-818" rx="72" ry="72"/>
<text text-anchor="middle" x="1483" y="-814.2" font-family="Times,serif" font-size="16.00">Pulse_Debounce2</text>
</g>
<!-- Pulse_Accum2&#45;&gt;Pulse_Debounce2 -->
<g id="edge21" class="edge"><title>Pulse_Accum2&#45;&gt;Pulse_Debounce2</title>
<path fill="none" stroke="black" d="M1332.14,-818C1354.03,-818 1378.28,-818 1400.79,-818"/>
<polygon fill="black" stroke="black" points="1400.99,-821.5 1410.99,-818 1400.99,-814.5 1400.99,-821.5"/>
</g>
<!-- Pulse_Falling2 -->
<g id="node20" class="node"><title>Pulse_Falling2</title>
<ellipse fill="none" stroke="black" cx="1710" cy="-817" rx="72" ry="72"/>
<text text-anchor="middle" x="1710" y="-813.2" font-family="Times,serif" font-size="16.00">Pulse_Falling2</text>
</g>
<!-- Pulse_Debounce2&#45;&gt;Pulse_Falling2 -->
<g id="edge22" class="edge"><title>Pulse_Debounce2&#45;&gt;Pulse_Falling2</title>
<path fill="none" stroke="black" d="M1555.19,-817.684C1578.29,-817.581 1604.08,-817.466 1627.84,-817.361"/>
<polygon fill="black" stroke="black" points="1627.9,-820.861 1637.89,-817.316 1627.87,-813.861 1627.9,-820.861"/>
<text text-anchor="middle" x="1596.5" y="-820.8" font-family="Times,serif" font-size="14.00">Timeout</text>
</g>
<!-- Pulse_Wait2 -->
<g id="node21" class="node"><title>Pulse_Wait2</title>
<ellipse fill="none" stroke="black" cx="1924" cy="-838" rx="72" ry="72"/>
<text text-anchor="middle" x="1924" y="-834.2" font-family="Times,serif" font-size="16.00">Pulse_Wait2</text>
</g>
<!-- Pulse_Falling2&#45;&gt;Pulse_Wait2 -->
<g id="edge23" class="edge"><title>Pulse_Falling2&#45;&gt;Pulse_Wait2</title>
<path fill="none" stroke="black" d="M1781.89,-824.022C1801.16,-825.931 1822.17,-828.013 1841.96,-829.972"/>
<polygon fill="black" stroke="black" points="1841.88,-833.482 1852.18,-830.985 1842.57,-826.516 1841.88,-833.482"/>
<text text-anchor="middle" x="1817" y="-831.8" font-family="Times,serif" font-size="14.00">!Pulse</text>
</g>
<!-- Pulse_Wait2&#45;&gt;Pulse_Accum2 -->
<g id="edge24" class="edge"><title>Pulse_Wait2&#45;&gt;Pulse_Accum2</title>
<path fill="none" stroke="black" d="M1859.82,-871.224C1836.09,-881.985 1808.45,-892.546 1782,-898 1733.18,-908.068 1440.32,-906.411 1411,-899 1382.51,-891.798 1353.55,-877.995 1328.77,-863.796"/>
<polygon fill="black" stroke="black" points="1330.24,-860.599 1319.84,-858.559 1326.7,-866.637 1330.24,-860.599"/>
<text text-anchor="middle" x="1596.5" y="-908.8" font-family="Times,serif" font-size="14.00">Pulse</text>
</g>
<!-- Dial_Digit -->
<g id="node22" class="node"><title>Dial_Digit</title>
<ellipse fill="none" stroke="black" cx="2151" cy="-853" rx="72" ry="72"/>
<text text-anchor="middle" x="2151" y="-849.2" font-family="Times,serif" font-size="16.00">Dial_Digit</text>
</g>
<!-- Pulse_Wait2&#45;&gt;Dial_Digit -->
<g id="edge25" class="edge"><title>Pulse_Wait2&#45;&gt;Dial_Digit</title>
<path fill="none" stroke="black" d="M1995.88,-842.726C2019.1,-844.273 2045.07,-846.005 2068.98,-847.599"/>
<polygon fill="black" stroke="black" points="2068.88,-851.099 2079.09,-848.272 2069.34,-844.115 2068.88,-851.099"/>
<text text-anchor="middle" x="2037.5" y="-849.8" font-family="Times,serif" font-size="14.00">Timeout</text>
</g>
<!-- Dial_Digit&#45;&gt;On_Call -->
<g id="edge26" class="edge"><title>Dial_Digit&#45;&gt;On_Call</title>
<path fill="none" stroke="black" d="M2086.92,-886.556C2042.84,-906.915 1981.9,-929 1925,-929 1259,-929 1259,-929 1259,-929 1163.04,-929 1093.61,-831.551 1055.07,-758.58"/>
<polygon fill="black" stroke="black" points="1058,-756.63 1050.29,-749.36 1051.78,-759.85 1058,-756.63"/>
</g>
</g>
</svg>
